<?xml version="1.0" standalone="no"?>
<!DOCTYPE svg PUBLIC "-//W3C//DTD SVG 20010904//EN"
 "http://www.w3.org/TR/2001/REC-SVG-20010904/DTD/svg10.dtd">
<svg version="1.0" xmlns="http://www.w3.org/2000/svg"
 width="2916.000000pt" height="2916.000000pt" viewBox="0 0 2916.000000 2916.000000"
 preserveAspectRatio="xMidYMid meet">

<g transform="translate(0.000000,2916.000000) scale(0.100000,-0.100000)"
fill="#000000" stroke="none">
<path d="M13850 29149 c-3094 -162 -5989 -1263 -8390 -3190 -1800 -1445 -3248
-3315 -4184 -5404 -1041 -2323 -1454 -4865 -1205 -7410 141 -1444 504 -2879
1064 -4210 1481 -3515 4285 -6319 7800 -7800 1421 -598 2954 -969 4500 -1090
420 -32 626 -39 1150 -39 661 0 1027 19 1620 85 2753 305 5322 1372 7500 3115
685 548 1365 1206 1943 1879 1502 1751 2560 3806 3102 6030 221 905 349 1792
400 2770 13 248 13 1135 0 1396 -116 2329 -750 4511 -1898 6529 -533 937
-1199 1845 -1954 2665 -202 219 -657 673 -868 866 -2536 2314 -5721 3640
-9149 3809 -236 12 -1202 11 -1431 -1z m815 -4559 c886 -53 1572 -190 1989
-397 l91 -45 205 -3 c156 -2 233 -7 325 -24 249 -45 472 -118 680 -224 799
-409 1348 -1379 1505 -2662 35 -286 44 -461 43 -850 -1 -721 -54 -1191 -199
-1767 -19 -75 -34 -139 -34 -142 0 -4 26 -6 58 -6 130 0 250 -49 328 -132 98
-105 128 -235 127 -553 0 -286 -32 -573 -104 -930 -43 -214 -114 -485 -153
-581 -110 -269 -355 -557 -703 -826 l-103 -80 0 -56 c0 -85 -27 -431 -50 -647
-69 -632 -157 -1047 -290 -1360 -151 -356 -519 -974 -895 -1505 l-88 -125 -8
-110 c-29 -418 -33 -1015 -8 -1425 26 -444 99 -807 194 -964 64 -106 215 -277
347 -392 378 -330 855 -564 1986 -974 1062 -384 1664 -632 2307 -950 834 -412
1447 -823 1900 -1275 148 -147 324 -349 356 -408 9 -15 -16 -45 -163 -194
-2818 -2852 -6693 -4316 -10688 -4038 -3089 215 -6009 1475 -8290 3575 -185
171 -660 641 -660 653 0 23 206 263 340 397 443 445 1025 841 1835 1250 638
322 1253 577 2356 979 1106 402 1561 618 1937 918 173 138 376 361 440 481 89
170 151 485 184 937 16 223 16 973 -1 1285 l-12 245 -31 45 c-17 25 -79 115
-138 200 -227 328 -494 759 -645 1040 -219 408 -310 685 -394 1196 -51 310
-100 771 -117 1092 l-7 133 -101 78 c-301 232 -526 482 -649 720 -179 344
-348 1323 -308 1787 19 217 56 320 146 403 79 72 192 111 325 111 39 0 70 2
70 5 0 2 -13 51 -30 107 -138 478 -204 932 -230 1584 -27 682 49 1151 292
1799 134 354 310 667 542 960 748 944 1825 1541 2993 1660 82 8 173 16 203 19
94 7 816 -3 995 -14z"/>
</g>
</svg>
