<?xml version="1.0" standalone="no"?>
<!DOCTYPE svg PUBLIC "-//W3C//DTD SVG 20010904//EN"
 "http://www.w3.org/TR/2001/REC-SVG-20010904/DTD/svg10.dtd">
<svg version="1.0" xmlns="http://www.w3.org/2000/svg"
 width="1200.000000pt" height="1200.000000pt" viewBox="0 0 1200.000000 1200.000000"
 preserveAspectRatio="xMidYMid meet">

<g transform="translate(0.000000,1200.000000) scale(0.100000,-0.100000)"
fill="#000000" stroke="none">
<path d="M5700 11814 c-1068 -64 -2050 -389 -2920 -967 -336 -224 -581 -426
-895 -741 -318 -319 -503 -543 -740 -901 -1144 -1723 -1278 -3952 -349 -5806
762 -1522 2157 -2638 3809 -3048 1066 -264 2211 -216 3255 135 675 227 1297
576 1875 1051 166 137 579 549 719 718 642 773 1064 1650 1255 2610 78 395
105 677 105 1130 0 375 -10 541 -55 845 -180 1241 -751 2380 -1642 3272 -963
966 -2198 1546 -3577 1683 -148 15 -699 27 -840 19z m870 -148 c827 -91 1570
-330 2261 -726 1504 -862 2537 -2370 2798 -4085 48 -312 56 -441 56 -860 -1
-417 -7 -518 -56 -845 -150 -1021 -589 -1991 -1269 -2811 -130 -156 -538 -564
-690 -690 -368 -305 -734 -546 -1140 -748 -624 -310 -1224 -484 -1970 -568
-222 -25 -898 -25 -1120 0 -461 52 -810 126 -1203 253 -1801 586 -3199 2043
-3716 3872 -213 754 -266 1591 -151 2378 152 1035 587 2002 1270 2825 134 160
539 565 699 699 373 309 726 539 1156 750 677 333 1348 513 2150 574 131 10
788 -3 925 -18z"/>
<path d="M8285 10806 c-102 -25 -205 -101 -205 -151 0 -10 65 -86 144 -169 79
-83 151 -166 160 -183 9 -18 26 -72 37 -120 11 -48 28 -101 36 -117 15 -28 15
-29 -11 -24 -15 3 -29 1 -32 -3 -3 -5 7 -9 23 -9 23 0 16 -7 -42 -36 -38 -20
-92 -43 -120 -51 -27 -8 -84 -34 -125 -58 -41 -24 -96 -54 -121 -66 -29 -15
-82 -63 -143 -129 -53 -57 -116 -117 -139 -131 -94 -60 -156 -155 -141 -216
l6 -22 49 25 c27 13 49 21 49 16 0 -4 -14 -30 -31 -57 -32 -50 -100 -185 -94
-185 2 0 45 20 97 45 94 46 178 70 164 47 -12 -20 4 -13 43 16 71 56 136 63
125 13 -12 -55 -16 -62 -47 -78 -18 -9 -27 -18 -20 -20 11 -4 93 9 141 23 24
7 24 6 9 -23 -20 -38 -75 -87 -159 -141 -45 -29 -70 -53 -77 -73 -22 -64 -151
-226 -215 -270 -37 -25 -50 -54 -41 -91 5 -21 11 -23 64 -20 56 3 61 2 99 -33
52 -46 102 -124 102 -158 0 -27 13 -36 25 -17 14 23 23 8 9 -17 -7 -16 -14
-50 -14 -77 l0 -49 53 50 c61 58 105 88 114 79 4 -3 -4 -18 -18 -32 -20 -21
-21 -27 -9 -34 8 -5 36 -10 63 -10 52 0 59 -10 25 -35 -23 -16 -22 -17 12 -10
88 16 145 38 173 66 38 39 25 60 -26 41 -18 -7 -39 -12 -46 -12 -18 0 -104 68
-118 93 -18 33 -16 48 17 115 39 77 138 179 255 261 50 35 109 81 131 103 l42
40 17 -77 c36 -165 104 -330 135 -330 8 0 30 28 48 62 54 103 108 278 154 499
l43 209 -1 215 c-2 604 -141 1156 -320 1270 -84 53 -237 73 -349 46z m225
-786 c8 -5 11 -10 5 -10 -5 0 -17 5 -25 10 -8 5 -10 10 -5 10 6 0 17 -5 25
-10z"/>
<path d="M7600 9988 c-65 -154 -226 -441 -316 -563 -129 -175 -147 -212 -144
-295 1 -36 5 -85 9 -110 l7 -45 14 28 c17 35 23 34 46 -8 10 -19 22 -35 25
-35 4 0 14 19 22 43 15 41 15 40 16 -91 1 -138 18 -282 32 -261 4 7 18 52 30
101 19 75 25 87 35 73 22 -30 28 4 35 200 7 196 15 241 64 371 29 77 29 78
-47 -26 -31 -41 -69 -86 -84 -100 l-28 -25 26 45 c14 25 79 140 144 255 l118
210 7 120 c4 66 10 130 14 143 13 41 -2 22 -25 -30z"/>
<path d="M8699 8264 c-13 -14 -42 -35 -64 -46 -43 -22 -158 -41 -148 -25 4 6
-3 8 -18 4 -13 -4 -31 -7 -39 -8 -10 0 -8 -3 5 -9 16 -7 13 -9 -22 -15 -24 -4
-43 -9 -43 -11 0 -2 9 -20 20 -40 l21 -36 -38 -33 c-36 -31 -38 -36 -38 -91 0
-46 7 -72 30 -118 36 -72 122 -176 195 -234 50 -41 56 -50 64 -100 l9 -54 34
5 c47 8 79 30 99 68 22 43 36 152 28 221 -7 64 -12 67 -76 44 -21 -8 -38 -12
-38 -11 0 2 13 31 30 66 50 107 87 289 64 312 -4 3 -19 0 -34 -8 l-27 -14 13
37 c15 42 18 91 6 110 -6 9 -15 5 -33 -14z"/>
<path d="M3553 8236 c-102 -33 -164 -96 -238 -243 -48 -94 -50 -101 -49 -178
1 -103 35 -185 104 -249 86 -80 166 -79 280 4 30 22 78 51 106 64 95 44 156
162 157 306 1 94 -16 142 -73 212 -61 74 -196 114 -287 84z m75 -141 c2 -24
10 -34 33 -42 24 -9 30 -17 27 -35 -3 -20 -10 -24 -55 -28 -46 -5 -58 -11 -93
-49 -22 -23 -40 -52 -40 -64 -1 -12 -5 -55 -9 -95 -16 -136 -75 -150 -137 -32
-27 51 -26 162 2 215 34 66 188 169 244 163 20 -2 26 -9 28 -33z m244 -42 c24
-21 23 -54 -3 -87 -25 -32 -61 -34 -90 -5 -22 22 -21 67 2 96 16 18 69 16 91
-4z"/>
<path d="M5717 7839 c-69 -16 -132 -57 -212 -138 -77 -79 -81 -81 -127 -81
-46 0 -50 -2 -81 -47 -43 -64 -81 -99 -114 -108 -37 -9 -63 -33 -63 -58 0 -11
22 -42 50 -69 46 -45 54 -60 62 -113 3 -19 4 -19 26 3 13 13 24 22 25 20 26
-51 42 -68 87 -96 98 -59 211 -82 398 -82 229 0 309 23 454 133 125 94 238
245 238 318 0 61 -349 275 -511 313 -70 17 -171 19 -232 5z m241 -101 c19 -19
15 -32 -30 -83 -54 -61 -155 -128 -185 -122 -18 3 -25 -2 -34 -31 -15 -45 -6
-148 16 -192 35 -70 105 -126 178 -144 15 -3 27 -11 27 -16 0 -17 -53 -25
-175 -24 -146 1 -194 13 -250 65 -54 49 -69 93 -63 173 7 84 48 165 125 246
80 85 143 120 236 130 111 11 142 11 155 -2z"/>
<path d="M3158 6899 c-80 -11 -160 -39 -219 -79 -46 -31 -104 -107 -114 -150
-3 -14 -14 -56 -24 -95 -11 -38 -20 -83 -21 -100 0 -33 -23 -145 -69 -340 -75
-324 -68 -404 54 -578 73 -104 96 -166 104 -271 10 -120 28 -155 115 -225 39
-30 116 -101 171 -157 55 -56 116 -109 135 -119 19 -10 75 -54 123 -99 94 -86
90 -85 123 -24 18 35 51 43 117 30 48 -10 53 -9 69 11 15 20 20 20 50 9 19 -6
49 -12 66 -12 26 0 32 4 32 21 0 33 39 94 72 114 53 31 136 22 153 -17 8 -19
22 -24 89 -33 62 -9 82 -16 97 -34 16 -19 22 -21 34 -11 8 7 15 20 15 30 0 9
9 25 21 36 11 10 36 40 56 66 31 43 39 48 75 48 22 0 53 -8 69 -17 26 -16 27
-18 13 -34 -15 -16 -13 -21 22 -63 l38 -46 111 0 c82 -1 124 -5 165 -20 60
-21 115 -26 105 -10 -4 7 2 9 17 5 17 -4 29 0 42 14 10 11 35 24 55 27 46 8
61 21 61 49 0 16 -8 25 -26 29 -25 7 -24 9 54 90 87 91 108 133 98 198 -5 31
-3 45 11 60 17 19 17 21 -10 44 -97 83 -314 68 -657 -46 -240 -79 -299 -77
-505 16 -135 62 -179 100 -233 202 -18 33 -32 63 -32 66 0 4 14 12 30 17 40
14 40 44 0 52 -16 4 -36 4 -44 1 -9 -4 -17 8 -25 40 -16 66 -14 100 9 121 28
25 25 45 -6 45 -24 0 -25 2 -22 53 3 57 24 72 43 30 5 -13 15 -23 21 -23 20 0
74 22 74 30 0 14 -29 32 -72 45 l-43 13 28 12 c32 16 35 35 7 52 -22 14 -25
30 -10 58 10 19 11 19 43 0 22 -13 37 -16 47 -10 12 7 12 12 2 22 -16 16 -15
28 3 28 8 0 15 7 15 15 0 20 -30 32 -40 15 -5 -8 -9 -9 -14 -1 -4 6 -1 20 7
32 15 20 16 19 47 -26 20 -29 38 -45 48 -43 15 3 18 23 22 143 4 113 10 153
29 205 17 48 22 79 19 119 -4 48 -9 58 -44 87 -21 18 -59 51 -84 72 -64 56
-121 85 -239 126 -142 50 -239 73 -353 85 -108 12 -124 12 -220 0z"/>
<path d="M4392 6078 c-13 -6 -21 -17 -18 -23 2 -7 0 -17 -6 -23 -6 -6 -6 -12
3 -17 7 -5 17 -1 24 8 7 10 17 17 23 17 16 0 43 30 37 41 -8 12 -34 10 -63 -3z"/>
<path d="M4217 6004 c-9 -10 15 -54 30 -54 16 0 17 32 1 48 -13 13 -22 15 -31
6z"/>
<path d="M4056 5904 c-22 -21 -20 -34 4 -34 15 0 20 7 20 25 0 29 -3 30 -24 9z"/>
<path d="M4310 5763 c-36 -4 -90 -37 -79 -48 13 -12 90 8 116 31 17 14 22 23
13 22 -8 -1 -31 -3 -50 -5z"/>
<path d="M4104 5714 c-16 -13 -16 -15 -2 -10 11 3 22 -2 28 -14 19 -35 67 -18
55 19 -8 26 -52 29 -81 5z"/>
<path d="M3937 5688 c3 -18 10 -41 15 -51 9 -18 11 -18 29 -1 26 23 24 48 -6
68 -36 24 -45 20 -38 -16z"/>
<path d="M4016 5519 c-14 -11 -26 -29 -26 -41 0 -17 4 -19 33 -13 42 9 58 25
51 53 -8 27 -24 28 -58 1z"/>
<path d="M4190 5485 c0 -22 27 -30 56 -16 33 15 22 31 -22 31 -24 0 -34 -5
-34 -15z"/>
<path d="M4097 5383 c-9 -20 0 -38 21 -41 25 -4 27 5 8 31 -14 18 -23 21 -29
10z"/>
<path d="M9160 4857 c-141 -227 -479 -539 -902 -833 -45 -32 -144 -176 -133
-194 3 -5 19 -11 35 -15 17 -4 30 -10 30 -13 0 -4 -9 -31 -20 -61 -12 -29 -18
-56 -15 -59 10 -10 150 68 238 133 48 36 87 63 87 61 0 -12 -77 -181 -147
-322 -89 -178 -137 -250 -229 -339 -41 -40 -64 -71 -69 -93 -4 -18 -5 -35 -3
-38 9 -8 367 237 445 306 94 80 197 205 244 294 63 119 164 250 237 308 35 28
36 29 9 24 -15 -3 -38 -8 -52 -11 -14 -3 -25 -3 -25 -1 0 3 16 31 35 64 44 73
75 161 82 230 l6 52 -68 -25 -68 -26 6 37 c10 58 61 154 117 219 93 108 188
268 205 343 3 17 5 32 3 32 -2 -1 -23 -33 -48 -73z"/>
</g>
</svg>
