<?xml version="1.0" standalone="no"?>
<!DOCTYPE svg PUBLIC "-//W3C//DTD SVG 20010904//EN"
 "http://www.w3.org/TR/2001/REC-SVG-20010904/DTD/svg10.dtd">
<svg version="1.0" xmlns="http://www.w3.org/2000/svg"
 width="900.000000pt" height="900.000000pt" viewBox="0 0 900.000000 900.000000"
 preserveAspectRatio="xMidYMid meet">

<g transform="translate(0.000000,900.000000) scale(0.100000,-0.100000)"
fill="#000000" stroke="none">
<path d="M4035 8990 c-16 -4 -54 -8 -82 -9 -59 -1 -163 -15 -268 -37 -123 -24
-309 -66 -355 -79 -25 -7 -65 -18 -90 -25 -257 -72 -684 -243 -850 -340 -8 -5
-69 -39 -135 -76 -544 -304 -1037 -742 -1411 -1254 -87 -119 -211 -306 -254
-385 -18 -33 -43 -76 -55 -95 -26 -41 -175 -342 -175 -352 0 -4 -11 -31 -24
-60 -51 -112 -129 -320 -156 -413 -5 -16 -16 -55 -25 -85 -14 -48 -32 -118
-65 -250 -5 -19 -16 -63 -24 -97 -9 -35 -16 -76 -16 -91 0 -16 -4 -42 -10 -58
-5 -16 -16 -86 -25 -156 -22 -184 -22 -1103 1 -1273 8 -65 17 -122 20 -127 3
-4 9 -35 14 -70 19 -133 87 -394 160 -618 26 -78 35 -104 61 -165 4 -11 29
-72 55 -135 129 -320 348 -699 572 -990 599 -778 1404 -1329 2342 -1603 47
-13 108 -30 135 -36 28 -7 66 -16 85 -21 70 -18 297 -61 385 -73 103 -14 1170
-17 1270 -4 148 19 201 29 395 72 684 154 1335 479 1900 949 117 97 384 360
489 481 259 298 473 617 639 951 79 158 105 217 196 444 26 65 80 232 111 345
10 33 23 80 30 105 7 25 17 68 23 95 6 28 17 82 26 120 14 66 27 143 58 330 9
58 13 217 13 590 0 550 4 486 -55 835 -4 25 -15 77 -24 115 -9 39 -21 90 -26
115 -5 25 -17 70 -25 100 -9 30 -22 78 -30 105 -30 111 -106 326 -159 455 -58
140 -164 357 -228 469 -26 46 -48 85 -48 87 0 13 -194 304 -279 418 -191 259
-471 557 -696 742 -28 23 -77 64 -110 91 -136 112 -414 300 -595 403 -260 147
-724 344 -945 400 -16 4 -57 15 -90 25 -89 25 -174 45 -225 54 -25 5 -90 17
-145 29 -91 18 -188 32 -320 48 -80 9 -927 13 -960 4z m850 -111 c253 -23 433
-54 695 -120 47 -11 101 -24 120 -29 61 -13 350 -115 470 -165 248 -103 501
-236 697 -366 41 -27 76 -49 78 -49 10 0 259 -191 365 -279 128 -107 359 -333
466 -456 38 -44 72 -82 75 -85 18 -17 195 -250 246 -325 87 -130 188 -295 240
-394 25 -47 49 -90 53 -96 6 -8 60 -126 120 -260 148 -331 270 -774 324 -1180
25 -182 39 -469 33 -665 -3 -102 -8 -192 -11 -200 -12 -30 -131 -71 -243 -83
-34 -4 -45 -1 -64 19 -19 20 -32 24 -86 24 -88 0 -309 46 -337 71 -4 4 6 25
22 46 17 21 38 55 46 75 22 52 5 68 -75 68 -111 0 -248 27 -369 73 l-65 24 0
129 -1 129 -60 -3 c-41 -2 -65 2 -71 10 -6 7 -13 58 -16 113 -7 118 -28 206
-62 256 -41 58 -25 80 28 39 57 -45 63 -11 11 75 -20 33 -49 70 -65 83 -37 29
-36 41 1 77 17 16 30 35 30 43 0 26 -74 156 -113 196 l-39 41 31 26 c17 14 31
34 31 44 0 10 -31 52 -68 94 -65 72 -190 228 -239 298 -32 45 -29 61 18 101
53 46 99 109 99 137 0 14 -9 26 -25 33 -28 13 -32 34 -10 52 27 23 76 102 73
118 -2 9 -14 19 -28 22 -39 9 -38 44 4 80 40 35 99 138 117 202 21 76 27 170
17 268 -11 110 -48 248 -77 289 -21 29 -22 29 -101 24 -52 -4 -89 -2 -110 7
-67 28 -15 84 73 78 65 -4 72 14 27 66 -33 37 -142 96 -178 96 -11 0 -25 7
-32 15 -11 13 -7 15 24 15 35 0 37 2 34 27 -2 19 -25 46 -80 94 -122 105 -242
151 -398 152 -90 1 -124 -10 -218 -68 -46 -29 -49 -27 -54 35 l-3 35 -50 -1
c-58 -2 -174 -40 -249 -83 -29 -17 -82 -58 -119 -91 l-66 -61 -31 42 c-16 23
-30 48 -30 54 0 7 -7 18 -15 25 -23 19 -39 0 -60 -70 -10 -33 -23 -60 -29 -60
-6 0 -28 18 -51 40 -52 51 -71 43 -48 -20 20 -56 12 -108 -23 -150 -29 -34
-51 -37 -95 -14 -36 18 -59 12 -59 -16 0 -24 -11 -25 -65 -6 -69 24 -233 67
-395 102 -200 44 -450 56 -623 30 l-108 -17 -40 23 -41 23 -18 -25 c-16 -21
-27 -25 -78 -26 -98 -2 -343 -68 -442 -119 -30 -15 -33 -15 -50 0 -16 15 -24
15 -52 6 -34 -12 -169 -89 -178 -101 -9 -13 -45 -19 -139 -22 l-94 -2 -41 61
c-98 145 -205 254 -361 365 -68 49 -194 110 -290 143 -82 27 -241 58 -256 50
-4 -3 -10 -1 -13 4 -9 14 3 23 229 157 107 64 357 190 480 243 55 23 109 46
120 51 63 27 316 112 405 136 30 9 80 22 110 30 30 9 73 19 95 24 22 4 74 15
115 24 129 29 321 57 510 75 108 11 656 10 775 0z m-175 -1163 c125 -18 211
-36 516 -114 228 -59 253 -68 326 -125 21 -15 42 -26 47 -22 15 9 132 -47 172
-83 27 -23 39 -44 48 -85 29 -130 107 -251 197 -309 73 -45 149 -130 184 -204
38 -78 66 -82 57 -9 -7 70 7 77 53 25 74 -84 109 -160 131 -285 7 -38 23 -91
36 -118 21 -42 26 -47 48 -41 22 5 27 1 41 -32 9 -22 20 -61 24 -89 9 -65 45
-145 64 -145 12 0 16 17 18 83 3 74 5 82 23 82 15 0 21 -9 26 -35 5 -30 39
-113 94 -234 52 -115 75 -170 75 -181 0 -6 -11 -17 -25 -23 -14 -6 -25 -15
-25 -19 0 -5 19 -34 43 -65 47 -64 107 -171 107 -191 0 -8 -11 -19 -25 -25
l-25 -12 31 -55 c33 -59 58 -147 59 -207 0 -41 -12 -47 -44 -23 -11 8 -26 15
-34 15 -27 0 9 -182 57 -279 26 -56 27 -81 1 -88 -16 -4 -20 -14 -20 -43 0
-32 -6 -44 -40 -73 -22 -19 -40 -39 -40 -44 0 -6 21 -14 48 -17 89 -13 103
-17 100 -33 -2 -9 -19 -21 -38 -27 -52 -16 -50 -41 10 -108 33 -37 50 -65 50
-83 0 -32 14 -61 47 -96 l25 -27 -21 -38 c-11 -22 -37 -79 -58 -129 -36 -88
-37 -93 -34 -197 4 -148 5 -146 -76 -145 l-67 2 -9 -35 c-32 -125 -77 -196
-77 -122 0 16 -3 32 -6 35 -4 4 -50 -35 -103 -86 -53 -50 -120 -108 -148 -127
-39 -27 -58 -49 -82 -98 -33 -67 -104 -152 -127 -152 -18 0 -18 11 1 36 19 25
19 58 0 74 -12 10 -18 7 -32 -21 -35 -64 -103 -127 -176 -162 -124 -60 -146
-59 -82 3 34 33 45 60 25 60 -6 0 -29 -9 -52 -21 -47 -24 -160 -61 -268 -88
-90 -23 -119 -28 -230 -40 -70 -8 -96 -16 -144 -45 -33 -20 -65 -36 -72 -36
-7 0 -14 16 -16 37 -3 34 -6 38 -43 46 -75 17 -547 14 -695 -5 -74 -9 -184
-22 -245 -28 -60 -6 -222 -35 -360 -65 -336 -71 -434 -82 -592 -61 -196 26
-447 88 -588 146 -16 7 -39 16 -50 20 -101 40 -342 161 -392 196 -20 15 -23
15 -29 1 -3 -9 6 -33 20 -54 14 -21 26 -41 26 -45 0 -35 -100 47 -240 196
-180 191 -424 419 -485 452 -46 25 -73 153 -55 266 11 71 45 174 61 183 29 19
-21 80 -58 70 -32 -8 -37 11 -14 48 32 52 58 71 107 77 25 3 46 9 47 15 1 5
-13 19 -31 30 -18 11 -55 37 -83 58 -56 43 -62 67 -25 106 54 56 106 220 122
378 5 59 3 77 -10 98 -17 25 -59 34 -71 15 -10 -17 -35 -11 -35 8 0 32 46 195
75 262 55 130 129 251 209 340 33 36 38 45 23 48 -9 2 -31 -6 -47 -18 -31 -22
-63 -21 -55 2 2 7 20 78 40 158 40 156 102 358 117 377 5 6 23 15 39 18 29 7
41 25 15 25 -8 0 -16 7 -19 15 -8 18 43 60 120 100 69 36 78 46 93 104 41 163
230 379 468 536 49 33 81 63 101 95 36 59 139 169 180 193 29 17 31 17 51 -3
21 -21 45 -26 54 -11 12 19 200 141 303 197 l62 34 20 -22 c23 -24 19 -24 156
26 87 32 314 86 332 79 7 -3 13 -12 13 -19 0 -8 6 -17 14 -20 13 -5 77 26 107
52 20 18 43 18 59 0 9 -12 17 -13 38 -4 86 33 393 46 562 24z m-3450 -275 c16
-31 12 -39 -25 -43 -39 -4 -44 5 -19 40 19 27 30 28 44 3z m-70 -59 c0 -4 -9
-33 -20 -65 -11 -31 -25 -102 -31 -157 -10 -85 -9 -112 5 -183 31 -159 79
-254 181 -360 38 -40 73 -67 95 -73 43 -12 45 -32 5 -54 -50 -28 -39 -48 55
-96 117 -60 229 -93 322 -94 26 0 49 -4 52 -9 3 -4 -5 -36 -19 -70 -53 -136
-138 -504 -123 -536 8 -17 1 -36 -35 -96 -90 -152 -133 -272 -163 -449 -16
-100 -19 -286 -4 -295 17 -11 39 14 51 59 15 55 47 116 60 116 8 0 9 -14 5
-42 -23 -150 -82 -295 -141 -346 -34 -30 -48 -76 -26 -84 5 -1 30 -22 55 -46
l45 -43 -34 -45 c-52 -67 -73 -123 -137 -347 -22 -77 20 -59 70 29 19 32 41
67 49 76 27 30 33 9 12 -44 -16 -40 -20 -75 -20 -153 0 -55 4 -114 9 -132 13
-40 6 -45 -76 -62 -121 -23 -177 -79 -74 -73 41 2 53 0 50 -10 -6 -17 -127
-78 -155 -78 -30 0 -73 -17 -73 -30 0 -5 9 -19 20 -30 12 -12 18 -24 16 -29
-3 -5 -37 -19 -76 -31 -65 -21 -70 -24 -70 -51 0 -16 -4 -29 -9 -29 -13 0 -95
-80 -109 -105 -8 -15 -6 -22 5 -30 13 -10 11 -18 -21 -60 -46 -60 -72 -110
-97 -187 -10 -34 -19 -62 -19 -64 0 -10 28 -1 50 16 42 33 42 23 0 -32 -108
-143 -180 -370 -180 -569 0 -49 -4 -89 -9 -89 -5 0 -34 49 -65 109 -30 60 -60
118 -65 128 -22 38 -89 189 -148 333 -34 85 -109 304 -133 390 -7 25 -18 65
-25 90 -46 157 -87 362 -122 610 -24 171 -29 765 -9 970 19 180 51 381 92 560
26 115 97 367 114 405 4 11 20 56 35 100 15 44 33 94 40 110 7 17 27 64 43
105 52 127 88 202 176 363 152 280 283 473 523 775 32 39 53 53 53 34z m3257
-4672 c126 -25 141 -30 243 -76 208 -95 292 -166 366 -314 35 -69 44 -101 53
-191 7 -63 14 -83 43 -125 48 -68 61 -95 92 -187 24 -73 49 -256 40 -296 -3
-9 0 -22 4 -29 7 -11 26 -8 93 16 174 61 487 112 694 112 182 0 377 -24 574
-72 166 -40 258 -72 288 -100 46 -42 73 -111 73 -182 0 -36 5 -68 10 -71 14
-9 49 15 93 61 32 34 35 36 45 18 29 -55 37 -183 15 -240 -3 -7 -53 -49 -111
-92 -331 -246 -722 -452 -1132 -597 -213 -75 -558 -165 -717 -186 -43 -5 -145
-19 -228 -30 -187 -25 -837 -40 -849 -20 -11 17 9 38 42 44 34 7 126 87 144
125 22 46 43 34 46 -25 2 -29 5 -53 8 -53 2 0 34 13 70 30 88 40 143 85 166
138 21 47 41 51 46 9 4 -36 17 -34 71 11 25 21 71 50 102 64 159 73 229 219
229 482 0 119 -3 140 -21 173 -66 119 -256 251 -509 353 -30 12 -64 26 -75 31
-11 4 -47 19 -80 33 -70 28 -84 48 -28 39 72 -11 222 -65 353 -125 63 -29 262
-155 280 -177 3 -3 31 -30 62 -60 66 -63 86 -62 118 4 41 85 35 262 -17 490
-23 99 -43 135 -115 200 -92 83 -250 152 -428 186 -90 17 -376 58 -423 61 -26
2 -46 8 -45 13 2 6 51 9 128 7 153 -3 293 -25 523 -80 127 -31 131 -29 122 59
-7 66 -38 155 -90 259 -47 94 -56 104 -130 145 -125 70 -226 96 -372 96 -316
0 -642 -167 -1016 -520 -206 -194 -372 -313 -719 -513 -160 -92 -269 -148
-408 -211 -14 -6 -29 -13 -34 -16 -5 -2 -6 1 -2 7 3 6 19 17 34 25 15 8 95 56
177 107 384 238 452 291 814 636 221 210 392 342 564 438 220 121 486 164 724
116z m-3661 -434 c9 -23 -24 -75 -48 -76 -6 0 -38 56 -38 67 0 6 44 22 63 22
10 1 20 -5 23 -13z"/>
<path d="M3675 6395 c3 -33 8 -77 11 -98 8 -51 -4 -127 -20 -127 -7 0 -23 14
-35 31 -32 43 -100 72 -148 63 -55 -9 -152 -63 -195 -107 -49 -51 -80 -106
-113 -202 -51 -149 -106 -222 -226 -300 -119 -77 -134 -116 -134 -335 0 -148
-2 -166 -18 -179 -18 -13 -17 -15 9 -42 18 -19 25 -34 21 -50 -4 -15 -1 -23
13 -26 11 -3 26 -16 35 -29 60 -92 249 -82 341 18 26 28 55 75 144 232 41 73
110 182 215 341 61 94 120 191 129 217 11 31 18 84 20 150 3 110 14 161 53
247 13 29 22 55 20 57 -2 3 -16 -11 -31 -31 -15 -19 -32 -33 -37 -30 -5 4 -9
32 -9 63 0 50 -15 114 -41 177 -5 12 -6 -3 -4 -40z m-269 -510 c7 -18 -12 -45
-32 -45 -14 0 -20 41 -7 53 11 12 33 7 39 -8z"/>
<path d="M5104 6429 c-10 -11 -30 -42 -44 -67 -34 -64 -56 -63 -53 3 1 42 0
45 -6 20 -5 -16 -9 -49 -10 -72 -1 -49 -19 -93 -37 -93 -24 0 -44 -43 -44 -98
l0 -53 -37 3 c-46 4 -46 3 -8 -137 15 -55 33 -128 40 -161 10 -52 20 -72 67
-125 162 -188 278 -350 333 -464 70 -145 278 -298 379 -280 17 4 41 14 53 23
35 28 153 243 153 280 0 3 -12 -8 -27 -24 l-28 -29 -7 80 c-11 134 -79 293
-173 405 -102 122 -142 188 -189 312 -41 110 -77 170 -135 229 -94 93 -192
128 -241 84 -14 -13 -24 -15 -31 -8 -7 7 3 36 33 94 54 106 51 99 40 99 -5 0
-17 -9 -28 -21z m34 -552 c2 -12 -3 -17 -17 -17 -15 0 -21 6 -21 21 0 25 33
22 38 -4z"/>
<path d="M4055 5154 c-11 -3 -40 -9 -65 -15 -61 -15 -94 -27 -164 -61 -32 -15
-76 -31 -98 -35 -47 -7 -74 -42 -84 -109 -11 -76 53 -173 136 -207 19 -8 69
-20 110 -26 41 -7 90 -14 108 -17 26 -4 32 -2 32 14 0 32 -41 59 -100 67 -132
17 -216 82 -164 126 13 11 27 10 80 -4 112 -29 209 -114 247 -217 14 -39 30
-59 71 -89 31 -23 62 -57 76 -85 14 -25 30 -46 36 -46 6 0 17 14 24 31 7 17
41 55 76 86 48 42 67 68 79 103 21 63 102 152 168 184 72 35 143 48 162 29 19
-18 19 -23 -1 -52 -21 -30 -92 -59 -162 -68 -43 -5 -63 -13 -84 -34 -30 -29
-36 -49 -15 -49 55 1 224 33 255 49 50 25 108 90 120 134 23 82 -22 177 -84
177 -9 0 -47 14 -83 31 -134 63 -207 81 -316 78 -123 -4 -204 -2 -275 4 -36 3
-74 4 -85 1z m215 -459 c0 -32 7 -60 19 -79 15 -22 17 -34 10 -48 -14 -26 -35
-22 -60 13 -18 25 -20 39 -15 79 4 27 11 63 18 80 14 43 28 21 28 -45z"/>
<path d="M4205 4194 c-22 -3 -76 -14 -120 -25 -193 -50 -235 -58 -323 -68 -50
-5 -146 -7 -212 -4 -82 4 -120 3 -120 -5 0 -31 295 -54 428 -32 73 11 177 40
232 62 42 18 230 34 290 26 30 -5 87 -19 125 -33 119 -41 236 -58 350 -50 55
4 114 12 130 19 26 11 9 14 -140 19 -176 7 -271 24 -368 66 -49 21 -187 34
-272 25z"/>
<path d="M4165 4094 c-148 -25 -160 -45 -53 -94 83 -39 145 -47 242 -32 78 13
196 64 196 86 0 19 -12 22 -135 41 -116 17 -142 17 -250 -1z"/>
<path d="M5040 3640 c-192 -98 -383 -170 -545 -205 -91 -20 -291 -29 -381 -18
-73 9 -94 8 -94 -7 0 -31 228 -55 389 -40 328 29 581 116 711 244 91 89 62 98
-80 26z"/>
</g>
</svg>
